<svg xmlns="http://www.w3.org/2000/svg" xmlns:xlink="http://www.w3.org/1999/xlink" xmlns:sketch="http://www.bohemiancoding.com/sketch/ns" viewBox="0 0 42 52.5" version="1.1" x="0px" y="0px"><title>Close Circle</title><desc>Created with Sketch.</desc><g stroke="none" stroke-width="1" fill="none" fill-rule="evenodd" sketch:type="MSPage"><path d="M35.6,6.6 C27.7,-1.3 14.8,-1.3 6.9,6.6 C-1,14.5 -1,27.4 6.9,35.3 C10.9,39.3 16,41.2 21.2,41.2 C26.4,41.2 31.6,39.2 35.5,35.3 C43.6,27.3 43.6,14.5 35.6,6.6 L35.6,6.6 Z M33.5,33.1 C26.8,39.8 15.8,39.8 9.1,33.1 C2.4,26.4 2.4,15.4 9.1,8.7 C12.5,5.3 16.9,3.6 21.3,3.6 C25.7,3.6 30.2,5.3 33.5,8.7 C40.3,15.4 40.3,26.4 33.5,33.1 L33.5,33.1 Z M27.8,14.4 C27.2,13.8 26.3,13.8 25.7,14.4 L21.3,18.8 L16.9,14.4 C16.3,13.8 15.4,13.8 14.8,14.4 C14.2,15 14.2,15.9 14.8,16.5 L19.2,20.9 L14.8,25.3 C14.2,25.9 14.2,26.8 14.8,27.4 C15.1,27.7 15.5,27.8 15.9,27.8 C16.3,27.8 16.7,27.7 17,27.4 L21.4,23 L25.8,27.4 C26.1,27.7 26.5,27.8 26.9,27.8 C27.3,27.8 27.7,27.7 28,27.4 C28.6,26.8 28.6,25.9 28,25.3 L23.6,20.9 L28,16.5 C28.4,15.9 28.4,15 27.8,14.4 L27.8,14.4 Z" fill="#000000" sketch:type="MSShapeGroup"/></g><text x="0" y="57" fill="#000000" font-size="5px" font-weight="bold" font-family="'Helvetica Neue', Helvetica, Arial-Unicode, Arial, Sans-serif">Created by The Impekables </text><text x="0" y="62" fill="#000000" font-size="5px" font-weight="bold" font-family="'Helvetica Neue', Helvetica, Arial-Unicode, Arial, Sans-serif">from the Noun Project</text></svg>